<?xml version="1.0" encoding="UTF-8"?>
<svg xmlns="http://www.w3.org/2000/svg" width="360" height="200" viewBox="0 0 360 200">
  <defs>
    <linearGradient id="g" x1="0" y1="0" x2="1" y2="1">
      <stop offset="0%" stop-color="#1a1a2e"/>
      <stop offset="100%" stop-color="#16213e"/>
    </linearGradient>
  </defs>
  <rect width="360" height="200" fill="url(#g)" rx="10"/>
  <!-- decorative waveform -->
  <rect x="20" y="140" width="3" height="20" rx="1.5" fill="rgba(255,255,255,0.1)"/>
  <rect x="26" y="130" width="3" height="30" rx="1.5" fill="rgba(255,255,255,0.15)"/>
  <rect x="32" y="120" width="3" height="40" rx="1.5" fill="rgba(255,255,255,0.2)"/>
  <rect x="38" y="135" width="3" height="25" rx="1.5" fill="rgba(255,255,255,0.12)"/>
  <rect x="44" y="125" width="3" height="35" rx="1.5" fill="rgba(255,255,255,0.18)"/>
  <rect x="50" y="115" width="3" height="45" rx="1.5" fill="rgba(255,255,255,0.22)"/>
  <rect x="56" y="128" width="3" height="32" rx="1.5" fill="rgba(255,255,255,0.14)"/>
  <rect x="62" y="138" width="3" height="22" rx="1.5" fill="rgba(255,255,255,0.1)"/>
  <!-- play circle -->
  <circle cx="180" cy="95" r="35" fill="rgba(255,255,255,0.25)" stroke="rgba(255,255,255,0.5)" stroke-width="2"/>
  <polygon points="172,82 172,108 196,95" fill="rgba(255,255,255,0.9)"/>
  <!-- title -->
  <text x="180" y="165" text-anchor="middle" font-family="system-ui, 'PingFang SC', 'Microsoft YaHei', sans-serif" font-size="14" fill="rgba(255,255,255,0.75)">中药材鉴别科普视频</text>
</svg>