<?xml version="1.0" encoding="UTF-8"?>
<svg xmlns="http://www.w3.org/2000/svg" width="300" height="500" viewBox="0 0 300 500">
  <rect width="300" height="500" rx="30" fill="#1a1a2e"/>
  <rect x="8" y="8" width="284" height="484" rx="24" fill="#0f0c29"/>
  <!-- notch -->
  <rect x="90" y="20" width="120" height="24" rx="12" fill="#000"/>
  <circle cx="110" cy="27" r="3" fill="#1a1a2e"/>
  <!-- time & date -->
  <text x="150" y="160" text-anchor="middle" font-family="system-ui, 'PingFang SC', 'Microsoft YaHei', sans-serif" font-size="32" font-weight="200" fill="rgba(255,255,255,0.8)">9:41</text>
  <text x="150" y="188" text-anchor="middle" font-family="system-ui, 'PingFang SC', 'Microsoft YaHei', sans-serif" font-size="12" fill="rgba(255,255,255,0.4)">6月24日 星期三</text>
  <!-- app icons -->
  <rect x="55" y="235" width="42" height="42" rx="11" fill="#34C759"/>
  <text x="76" y="261" text-anchor="middle" font-family="system-ui, sans-serif" font-size="20" fill="#FFF">&#x1F4AC;</text>
  <rect x="125" y="235" width="42" height="42" rx="11" fill="#2C2C2E"/>
  <polygon points="146,248 158,261 146,274" fill="#FFF"/>
  <rect x="195" y="235" width="42" height="42" rx="11" fill="#FF8C00"/>
  <text x="216" y="261" text-anchor="middle" font-family="system-ui, sans-serif" font-size="20" fill="#FFF">&#x1F6CD;</text>
  <rect x="90" y="308" width="42" height="42" rx="11" fill="#3B82F6"/>
  <text x="111" y="334" text-anchor="middle" font-family="system-ui, sans-serif" font-size="20" fill="#FFF">&#x1F4F1;</text>
  <rect x="160" y="308" width="42" height="42" rx="11" fill="#10B981"/>
  <text x="181" y="334" text-anchor="middle" font-family="system-ui, sans-serif" font-size="20" fill="#FFF">&#x1F6CD;</text>
  <!-- dock -->
  <rect x="35" y="430" width="230" height="48" rx="20" fill="rgba(255,255,255,0.08)"/>
  <rect x="48" y="437" width="30" height="30" rx="7" fill="#34C759"/>
  <rect x="98" y="437" width="30" height="30" rx="7" fill="#2C2C2E"/>
  <rect x="148" y="437" width="30" height="30" rx="7" fill="#FF8C00"/>
  <rect x="198" y="437" width="30" height="30" rx="7" fill="#3B82F6"/>
  <!-- chat bubble hint -->
  <rect x="120" y="360" width="140" height="50" rx="14" fill="rgba(255,255,255,0.12)"/>
  <text x="190" y="382" text-anchor="middle" font-family="system-ui, 'PingFang SC', 'Microsoft YaHei', sans-serif" font-size="10" fill="rgba(255,255,255,0.6)">妈妈发来一条消息</text>
  <text x="190" y="397" text-anchor="middle" font-family="system-ui, 'PingFang SC', 'Microsoft YaHei', sans-serif" font-size="9" fill="rgba(255,255,255,0.35)">让你帮忙看看药材…</text>
</svg>